#!OML:ASF I:\Actors\actors\Patient Classification 2\Patient 1\Session 1\actor1.ASF
:FULLY-SPECIFIED
:DEGREES
471
root 0.154197 18.2724 5.23254 -9.14968 -3.08226 -1.62741
lowerback 12.1866 -0.58702 4.10361
upperback 4.04086 -0.184639 3.31835
thorax -2.59711 -0.0983803 1.17147
lowerneck -7.2975 -0.527572 0.294492
upperneck 18.9827 0.179006 -5.06778
head 6.99803 -0.325132 -1.673
rclavicle -1.98785e-015 5.00937e-014
rhumerus 2.02968 16.3074 -77.9064
rradius 76.4936
rwrist -11.7987
rhand -18.4601 -48.5722
rfingers 7.12502
rthumb 7.82629 -78.4074
lclavicle -1.98785e-015 5.00937e-014
lhumerus 30.2148 -30.5102 62.6447
lradius 62.9648
lwrist 9.69843
lhand -12.624 -18.361
lfingers 7.12502
lthumb 13.4556 11.1844
rfemur 11.2577 1.15874 12.8523
rtibia 10.3683
rfoot -17.2673 -7.29703
rtoes -10.6212
lfemur -3.10178 7.44911 -17.0851
ltibia 34.9524
lfoot -24.7284 8.09502
ltoes -54.6126
472
root 0.135842 18.2703 5.22772 -9.26977 -3.00625 -1.67385
lowerback 12.084 -0.558101 4.03089
upperback 4.15113 -0.167242 3.32443
thorax -2.42577 -0.0872177 1.21428
lowerneck -7.33868 -0.559454 0.333923
upperneck 18.9105 0.108672 -4.96929
head 6.97975 -0.347109 -1.65268
rclavicle 1.0138e-014 -4.77083e-015
rhumerus 4.87534 16.6994 -77.8388
rradius 74.2978
rwrist -12.374
rhand -18.4108 -48.6879
rfingers 7.12502
rthumb 7.87387 -78.5212
lclavicle 1.0138e-014 -4.77083e-015
lhumerus 30.4373 -30.3639 62.9537
lradius 62.6603
lwrist 9.72401
lhand -12.8358 -18.5386
lfingers 7.12502
lthumb 13.2515 11.0202
rfemur 11.2894 1.12362 12.9725
rtibia 10.6021
rfoot -17.386 -7.26772
rtoes -10.7729
lfemur -3.00636 7.47893 -16.9308
ltibia 34.989
lfoot -24.6701 7.98355
ltoes -54.5957
473
root 0.119182 18.2685 5.22084 -9.38489 -3.06074 -1.67803
lowerback 12.1254 -0.496921 4.00034
upperback 4.19856 -0.0913344 3.27387
thorax -2.39827 -0.0487404 1.1681
lowerneck -7.3395 -0.570682 0.296589
upperneck 18.8645 0.0529989 -4.73379
head 6.96366 -0.355804 -1.57405
rclavicle -1.39149e-015 5.08889e-014
rhumerus 7.4316 17.2774 -77.6501
rradius 72.2956
rwrist -12.2265
rhand -19.0322 -48.6347
rfingers 7.12502
rthumb 7.27409 -78.4896
lclavicle -1.39149e-015 5.08889e-014
lhumerus 30.5806 -30.2857 63.2417
lradius 62.3934
lwrist 9.88136
lhand -13.1408 -18.6385
lfingers 7.12502
lthumb 12.9575 10.9392
rfemur 11.2882 1.14187 13.0364
rtibia 10.7948
rfoot -17.4142 -7.19601
rtoes -10.9346
lfemur -2.9163 7.57764 -16.8258
ltibia 35.025
lfoot -24.6445 7.91098
ltoes -54.5965
474
root 0.102525 18.2667 5.21485 -9.45393 -3.09511 -1.66822
lowerback 12.1528 -0.409463 4.02996
upperback 4.22249 0.0250715 3.16948
thorax -2.38709 0.0101319 1.02627
lowerneck -7.41307 -0.635633 0.303167
upperneck 18.8994 -0.0785268 -4.50091
head 6.98452 -0.399929 -1.51119
rclavicle -1.14301e-014 -5.56597e-015
rhumerus 9.81279 17.2789 -77.3559
rradius 70.3137
rwrist -9.14493
rhand -16.6747 -50.0604
rfingers 7.12502
rthumb 9.5492 -79.824
lclavicle -1.14301e-014 -5.56597e-015
lhumerus 30.7377 -30.2883 63.5345
lradius 62.1695
lwrist 10.0487
lhand -13.2601 -18.7557
lfingers 7.12502
lthumb 12.8425 10.8293
rfemur 11.211 1.20258 13.094
rtibia 11.0608
rfoot -17.5292 -7.10931
rtoes -10.7539
lfemur -2.88401 7.68443 -16.7424
ltibia 35.0817
lfoot -24.6338 7.82631
ltoes -54.6553
475
root 0.0880904 18.2636 5.20975 -9.4964 -3.01967 -1.67277
lowerback 12.161 -0.33303 4.08618
upperback 4.24358 0.129349 3.07158
thorax -2.36785 0.0632589 0.877926
lowerneck -7.60332 -0.739831 0.204385
upperneck 19.0231 -0.257249 -4.19913
head 7.05481 -0.470227 -1.41407
rclavicle 3.18055e-015 3.49861e-014
rhumerus 12.0008 18.1582 -76.5751
rradius 68.8371
rwrist -9.27526
rhand -18.5031 -47.3806
rfingers 7.12502
rthumb 7.78476 -77.2173
lclavicle 3.18055e-015 3.49861e-014
lhumerus 30.8589 -30.3183 63.8964
lradius 62.0305
lwrist 10.2507
lhand -13.3284 -18.7697
lfingers 7.12502
lthumb 12.7766 10.8193
rfemur 11.099 1.19938 13.1549
rtibia 11.3766
rfoot -17.6928 -7.04972
rtoes -10.7043
lfemur -2.90263 7.70567 -16.6741
ltibia 35.1492
lfoot -24.6056 7.80135
ltoes -54.7681
476
root 0.0723645 18.2608 5.2051 -9.54511 -2.87011 -1.68075
lowerback 12.1814 -0.293722 4.13102
upperback 4.25807 0.184131 2.9638
thorax -2.36244 0.0916237 0.732719
lowerneck -7.79909 -0.826048 0.0380366
upperneck 19.1924 -0.409011 -3.8506
head 7.14292 -0.528371 -1.28894
rclavicle 1.09332e-015 1.51076e-014
rhumerus 14.1229 18.9588 -75.5299
rradius 67.5111
rwrist -8.58409
rhand -18.9398 -47.2137
rfingers 7.12502
rthumb 7.36328 -77.0656
lclavicle 1.09332e-015 1.51076e-014
lhumerus 30.9062 -30.3529 64.249
lradius 61.9321
lwrist 10.6556
lhand -13.5022 -18.7631
lfingers 7.12502
lthumb 12.6091 10.8363
rfemur 10.9784 1.09929 13.2024
rtibia 11.7501
rfoot -17.8542 -6.97672
rtoes -10.7866
lfemur -2.93691 7.72224 -16.6
ltibia 35.2305
lfoot -24.5092 7.84357
ltoes -54.966
477
root 0.0596596 18.2589 5.19833 -9.56712 -2.7752 -1.63148
lowerback 12.2017 -0.238837 4.17363
upperback 4.26085 0.258645 2.82228
thorax -2.36833 0.129696 0.550872
lowerneck -7.89613 -0.902104 -0.00951609
upperneck 19.3068 -0.546143 -3.61833
head 7.1955 -0.579133 -1.21895
rclavicle -8.74653e-015 2.78299e-014
rhumerus 16.0677 19.8768 -74.2768
rradius 66.429
rwrist -7.90963
rhand -19.472 -47.2053
rfingers 7.12502
rthumb 6.84949 -77.0745
lclavicle -8.74653e-015 2.78299e-014
lhumerus 30.9089 -30.3664 64.6669
lradius 61.8114
lwrist 11.0643
lhand -13.7676 -18.7927
lfingers 7.12502
lthumb 12.3532 10.8224
rfemur 10.8255 0.968853 13.1486
rtibia 12.0748
rfoot -17.9167 -6.83042
rtoes -10.3112
lfemur -2.99902 7.78968 -16.6078
ltibia 35.29
lfoot -24.3564 7.94676
ltoes -55.1669
